<svg xmlns="http://www.w3.org/2000/svg" viewBox="0 0 60 60">
  <defs><clipPath id="c"><circle cx="30" cy="30" r="30"/></clipPath></defs>
  <g clip-path="url(#c)">
    <rect width="60" height="60" fill="#DE2910"/>
    <polygon fill="#FFDE00" points="12,9 14.5,16.2 22,16.2 15.9,20.6 18.2,27.8 12,23.4 5.8,27.8 8.1,20.6 2,16.2 9.5,16.2"/>
    <polygon fill="#FFDE00" points="27,7 28,10 31.2,10 28.6,11.9 29.6,15 27,13 24.4,15 25.4,11.9 22.8,10 26,10"/>
    <polygon fill="#FFDE00" points="34,14 35,17 38.2,17 35.6,18.9 36.6,22 34,20 31.4,22 32.4,18.9 29.8,17 33,17"/>
    <polygon fill="#FFDE00" points="34,25 35,28 38.2,28 35.6,29.9 36.6,33 34,31 31.4,33 32.4,29.9 29.8,28 33,28"/>
    <polygon fill="#FFDE00" points="27,32 28,35 31.2,35 28.6,36.9 29.6,40 27,38 24.4,40 25.4,36.9 22.8,35 26,35"/>
  </g>
</svg>
